# xmcd
#
# Track frame offsets: 
#        150
#        13186
#        29700
#        45259
#        59267
#        73596
#        87141
#        98251
#        111742
#        127200
#        141302
#        157800
#
# Disc length: 2304 seconds
#
# Revision: 0
# Processed by: cddbd v1.5.2PL0 Copyright (c) Steve Scherf et al.
# Submitted via: ExactAudioCopy v1.3
#
DISCID=a208fe0c
DTITLE=Collin Raye - Still On The Line (The Songs Of Glenn Campbell)
DYEAR=2013
DGENRE=Country
TTITLE0=Galveston
TTITLE1=Gentle On My Mind (with Ricky Skaggs)
TTITLE2=Wichita Lineman
TTITLE3=Southern Nights
TTITLE4=True Grit
TTITLE5=Country Boy
TTITLE6=Try A Little Kindness
TTITLE7=Dreams Of The Everyday Housewife
TTITLE8=By The Time I Get To Phoenix
TTITLE9=The Hand That Rocks The Cradle
TTITLE10=Rhinestone Cowboy (with Billy Dean)
TTITLE11=Where's The Playground Susie
EXTD=
EXTT0=
EXTT1=
EXTT2=
EXTT3=
EXTT4=
EXTT5=
EXTT6=
EXTT7=
EXTT8=
EXTT9=
EXTT10=
EXTT11=
PLAYORDER=
